<svg width="256px" height="250px" xmlns="http://www.w3.org/2000/svg" xmlns:xlink="http://www.w3.org/1999/xlink">
<g style="">  <path d="M128.001053,0.000000 C57.317291,0.000000,0.000000,57.306694,0.000000,128.001053 C0.000000,184.555283,36.676201,232.535538,87.534935,249.460892 C93.932022,250.645782,96.280586,246.684158,96.280586,243.303329 C96.280586,240.251038,96.161888,230.167892,96.106773,219.472183 C60.496758,227.215240,52.982620,204.369705,52.982620,204.369705 C47.159958,189.574600,38.770409,185.640533,38.770409,185.640533 C27.156879,177.696106,39.645821,177.859329,39.645821,177.859329 C52.499340,178.762299,59.267365,191.049866,59.267365,191.049866 C70.683769,210.618423,89.211578,204.961090,96.515869,201.690475 C97.664719,193.417511,100.981956,187.770782,104.642586,184.574356 C76.211800,181.337662,46.324818,170.362137,46.324818,121.315704 C46.324818,107.340889,51.325058,95.922371,59.513245,86.958397 C58.184227,83.734413,53.802921,70.715561,60.753235,53.084362 C60.753235,53.084362,71.501953,49.644180,95.962639,66.204956 C106.172966,63.368877,117.123047,61.946594,128.001053,61.897842 C138.879074,61.946594,149.837631,63.368877,160.067032,66.204956 C184.498047,49.644180,195.231934,53.084362,195.231934,53.084362 C202.199203,70.715561,197.815765,83.734413,196.486755,86.958397 C204.694016,95.922371,209.660339,107.340889,209.660339,121.315704 C209.660339,170.478729,179.716125,181.303741,151.213287,184.472610 C155.804428,188.444824,159.895340,196.234512,159.895340,208.176590 C159.895340,225.303314,159.746964,239.087357,159.746964,243.303329 C159.746964,246.709595,162.051025,250.700897,168.539246,249.443939 C219.370438,232.499512,256.000000,184.536209,256.000000,128.001053 C256.000000,57.306694,198.691193,0.000000,128.001053,0.000000 Z M47.940559,182.340210 C47.658646,182.976105,46.658173,183.166870,45.746727,182.730225 C44.818325,182.312653,44.296890,181.445724,44.597881,180.807709 C44.873436,180.152740,45.876026,179.970444,46.802311,180.409210 C47.732834,180.826782,48.262745,181.702194,47.940559,182.340210 Z M54.236790,187.958252 C53.626331,188.524200,52.432972,188.261368,51.623268,187.366867 C50.786007,186.474503,50.629154,185.281143,51.248093,184.706726 C51.877625,184.140778,53.034950,184.405731,53.874329,185.298096 C54.711590,186.201065,54.874802,187.385956,54.236790,187.958252 Z M58.556240,195.146347 C57.771973,195.691101,56.489590,195.180267,55.696842,194.042007 C54.912575,192.903763,54.912575,191.538712,55.713799,190.991852 C56.508667,190.444977,57.771973,190.936737,58.575317,192.066498 C59.357468,193.223831,59.357468,194.588882,58.556240,195.146347 Z M65.861359,203.471176 C65.159760,204.244843,63.665409,204.037125,62.571671,202.981537 C61.452499,201.949265,61.140911,200.484589,61.844635,199.710922 C62.554714,198.935135,64.057541,199.153458,65.159760,200.200562 C66.270454,201.230713,66.609596,202.705978,65.861359,203.471176 Z M75.302513,206.281540 C74.993050,207.284134,73.553810,207.739853,72.103973,207.313812 C70.656258,206.875046,69.708778,205.700760,70.001289,204.687576 C70.302277,203.678619,71.747871,203.203827,73.208305,203.659546 C74.653908,204.096191,75.603508,205.261993,75.302513,206.281540 Z M86.046944,207.473633 C86.082977,208.529205,84.853584,209.404617,83.331680,209.423706 C81.801300,209.457611,80.563431,208.603394,80.546471,207.564774 C80.546471,206.498596,81.748306,205.631653,83.278694,205.606216 C84.800598,205.576553,86.046944,206.424408,86.046944,207.473633 Z M96.602150,207.069016 C96.784439,208.099167,95.726730,209.156876,94.215431,209.438782 C92.729561,209.710098,91.353912,209.074203,91.165260,208.052536 C90.980850,206.996948,92.057632,205.939255,93.541382,205.665817 C95.054810,205.402985,96.409256,206.021912,96.602150,207.069016 Z " style="fill: rgba(17, 18, 16, 1.000000); stroke-width: 0.000000px; stroke: rgba(0, 0, 0, 1.000000); " fill="#161614" stroke="#000000" stroke-width="0.000000" />
</g></svg>