<?xml version="1.0" encoding="UTF-8"?>
<svg width="400px" height="473px" viewBox="0 0 400 473" version="1.1" xmlns="http://www.w3.org/2000/svg" xmlns:xlink="http://www.w3.org/1999/xlink">
    <!-- Generator: Sketch 46.2 (44496) - http://www.bohemiancoding.com/sketch -->
    <title>Gregor Head@1x</title>
    <desc>Created with Sketch.</desc>
    <defs>
        <path d="M313.68555,381.409226 C313.68555,350.87898 306.224374,293.425954 306.224374,293.425954 C303.717651,272.141637 318.81433,251.992894 339.944206,248.4224 L339.277558,248.535049 C360.40723,244.96459 378.483977,259.408541 379.610138,280.809444 C379.610138,280.809444 383.559489,349.273327 383.559489,379.000747 C383.559489,404.148805 376.652919,450.917753 376.652919,450.917753 C373.839896,472.157721 354.18627,489.376118 332.752918,489.376118 L340.492121,489.376118 C319.059844,489.376118 304.074303,472.158384 306.874773,450.924441 C306.874773,450.924441 313.68555,405.754458 313.68555,381.409226 Z" id="path-1"></path>
        <rect id="path-2" x="1.42108547e-14" y="0.586778419" width="206" height="404.413222" rx="21"></rect>
        <path d="M54.0153402,381.071655 C54.0153402,348.926879 46.3391371,286.422782 46.3391371,286.422782 C43.95117,265.124519 59.3997934,247.858866 80.8346355,247.858866 L73.0699841,247.858866 C94.5092889,247.858866 113.906266,265.114959 116.285245,286.419656 C116.285245,286.419656 123.889279,347.236314 123.889279,378.535808 C123.889279,405.013769 116.744193,456.248687 116.744193,456.248687 C114.062898,477.511355 94.5048262,494.748153 73.0699841,494.748153 L80.8346355,494.748153 C59.3953307,494.748153 44.2883216,477.517972 46.9611467,456.260004 C46.9611467,456.260004 54.0153402,406.704334 54.0153402,381.071655 Z" id="path-4"></path>
        <rect id="path-5" x="153.483871" y="1.96755162" width="33.4516129" height="17.0521141"></rect>
        <rect id="path-6" x="96.4193548" y="531.894789" width="64.9354839" height="64.273353"></rect>
        <rect id="path-7" x="200.709677" y="512.219272" width="70.8387097" height="64.273353"></rect>
        <rect id="path-8" x="0" y="0" width="134.304636" height="236" rx="67.1523179"></rect>
        <linearGradient x1="50%" y1="0%" x2="50%" y2="100%" id="linearGradient-10">
            <stop stop-color="#C8C8C8" offset="0%"></stop>
            <stop stop-color="#979797" offset="100%"></stop>
        </linearGradient>
        <path d="M68.2054009,148.488002 C46.2817507,148.877576 24.6993652,161.367845 24.6993652,161.367845 L-15.544046,121.887097 L-24.5418554,207.547232 L31.7981328,248.441447 L104.081147,249.010661 L175.795893,183.663856 L154.061249,111.688463 L111.004053,159.834249 C111.004053,159.834249 90.1290511,148.098429 68.2054009,148.488002 Z" id="path-11"></path>
        <ellipse id="path-12" cx="73.8675497" cy="189.582938" rx="13.4304636" ry="10.6255924"></ellipse>
        <polygon id="path-13" points="5.68434189e-14 69.3367784 6 189.336778 70 189.336778 77 69.3367784"></polygon>
        <polygon id="path-14" points="9.5 124.336778 12.1865672 182.336778 65.0223881 182.336778 69.5 105.336778"></polygon>
    </defs>
    <g id="Me-Head-Copy" stroke="none" stroke-width="1" fill="none" fill-rule="evenodd">
        <g id="Gregor-Head">
            <g id="Gregor" transform="translate(-15.000000, 36.000000)">
                <g>
                    <g id="arm" transform="translate(344.755908, 368.684567) scale(1, -1) rotate(20.000000) translate(-344.755908, -368.684567) ">
                        <use fill="#515151" xlink:href="#path-1"></use>
                        <use fill="#3E3E3E" xlink:href="#path-1"></use>
                    </g>
                    <g id="neck-copy" transform="translate(115.000000, 256.000000)">
                        <mask id="mask-3" fill="white">
                            <use xlink:href="#path-2"></use>
                        </mask>
                        <use id="Mask" fill="#515151" xlink:href="#path-2"></use>
                        <rect fill="#3E3E3E" mask="url(#mask-3)" x="63" y="-101" width="78.8700027" height="150.319259" rx="39.4350014"></rect>
                    </g>
                    <g id="arm-copy-3" transform="translate(84.992481, 371.303509) scale(-1, -1) rotate(20.000000) translate(-84.992481, -371.303509) ">
                        <use fill="#515151" xlink:href="#path-4"></use>
                        <use fill="#3E3E3E" xlink:href="#path-4"></use>
                    </g>
                    <g id="lower" transform="translate(44.000000, 638.000000)">
                        <rect id="Belt" fill="#000000" x="70.8387097" y="0" width="206.612903" height="21.6430678"></rect>
                        <g id="Rectangle-19">
                            <use fill="#D8D8D8" fill-rule="evenodd" xlink:href="#path-5"></use>
                            <rect stroke="#979797" stroke-width="4" x="155.483871" y="3.96755162" width="29.4516129" height="13.0521141"></rect>
                        </g>
                        <rect id="Rectangle-18" fill="#044981" x="70.8387097" y="21.6430678" width="203.333333" height="78.7020649"></rect>
                        <g id="sock">
                            <use fill="#D8D8D8" fill-rule="evenodd" xlink:href="#path-6"></use>
                            <rect stroke="#C6C6C6" stroke-width="1" x="96.9193548" y="532.394789" width="63.9354839" height="63.273353"></rect>
                        </g>
                        <g id="sock">
                            <use fill="#D8D8D8" fill-rule="evenodd" xlink:href="#path-7"></use>
                            <rect stroke="#C6C6C6" stroke-width="1" x="201.209677" y="512.719272" width="69.8387097" height="63.273353"></rect>
                        </g>
                        <g id="Group-2" transform="translate(180.376344, 569.278269)">
                            <path d="M2.40978876,43.5280202 C1.60652584,52.0712383 -5.68434189e-14,77.4522549 -5.68434189e-14,77.4522549 L44.0390377,79.4042494 L61.4320441,70.7956685 L69.4642865,80.0566896 L244.782527,82.4534086 L246.201388,53.7973688 C246.201388,53.7973688 246.201379,48.3784424 234.032854,42.7231225 C215.920722,40.0409896 187.001115,45.0307033 187.001115,45.0307033 C187.001115,45.0307033 183.451157,43.2118503 182.089976,42.3024239 C160.416829,27.8222514 118.881373,15.000995 97.2082261,0.520822488 C97.2082261,0.520822488 55.2792209,11.5597426 16.808838,4.81109557 C4.36831773,17.4250802 3.62322182,30.6223786 2.40978876,43.5280202 Z" id="shoe-main" fill="#3C2415"></path>
                            <polygon id="sole" fill="#1E0F07" points="-5.68434189e-14 77.3533495 44.0390377 79.3053439 61.4320441 70.696763 69.4642865 79.9577841 245.610123 82.3545031 245.610123 75.0630631 75.6210246 75.0630636 65.4922312 64.3890913 57.9354534 64.3890913 39.5454733 73.4041471 -5.68434189e-14 71.745231"></polygon>
                            <path d="M148.443121,21.9524882 C158.444246,26.2115762 136.535373,40.9219184 136.535373,40.9219184 C136.535373,40.9219184 96.3668578,36.5700135 89.3270724,33.9461825 C75.9981754,26.2558024 84.9818421,21.7071638 84.9818421,21.7071638 C84.9818421,21.7071638 98.1901239,9.533495 105.772673,2.8343652 C123.533139,11.1162117 138.441996,17.6934002 148.443121,21.9524882 L148.443121,21.9524882 Z" id="lace-plate" fill="#663019"></path>
                            <g id="Shoelace-group" transform="translate(104.546969, 16.878002) rotate(-4.000000) translate(-104.546969, -16.878002) translate(91.046969, 3.878002)">
                                <ellipse id="slace-hole" fill="#994325" cx="3.31038464" cy="22.395367" rx="3.31038464" ry="3.31783215"></ellipse>
                                <path d="M12.1370828,11.7230401 C15.7489134,8.46361683 24.6277669,0.285854263 24.6277669,0.285854263 C24.6277669,0.285854263 27.3526137,0.330339803 26.2890766,2.13507661 C25.2255396,3.93981341 21.4106843,7.57758086 18.9714881,9.88410397 C14.3695571,14.2357262 9.37140297,19.2880916 5.16569492,22.1095127 C0.959986875,24.9309338 3.50438516,20.2602904 3.50438516,20.2602904 C3.50438516,20.2602904 8.98365155,14.5687902 12.1370828,11.7230401 L12.1370828,11.7230401 Z" id="Shoe-string" fill="#000000"></path>
                            </g>
                            <g id="Shoelace-group" transform="translate(114.300189, 22.196441) rotate(-4.000000) translate(-114.300189, -22.196441) translate(101.800189, 9.696441)">
                                <ellipse id="slace-hole" fill="#994325" cx="3.31038464" cy="21.565909" rx="3.31038464" ry="3.31783215"></ellipse>
                                <path d="M12.1370828,10.893582 C15.7489134,7.6341588 22.9725745,0.285854263 22.9725745,0.285854263 C22.9725745,0.285854263 25.6974214,0.330339803 24.6338843,2.13507661 C23.5703472,3.93981341 21.4106843,6.74812282 18.9714881,9.05464593 C14.3695571,13.4062682 9.37140297,18.4586336 5.16569492,21.2800547 C0.959986875,24.1014758 3.50438516,19.4308324 3.50438516,19.4308324 C3.50438516,19.4308324 8.98365155,13.7393321 12.1370828,10.893582 L12.1370828,10.893582 Z" id="Shoe-string" fill="#000000"></path>
                            </g>
                            <g id="Shoelace-group" transform="translate(127.214795, 25.367187) rotate(-4.000000) translate(-127.214795, -25.367187) translate(116.714795, 13.867187)">
                                <ellipse id="slace-hole" fill="#994325" cx="3.31038464" cy="19.0775348" rx="3.31038464" ry="3.31783215"></ellipse>
                                <path d="M10.4818905,10.064124 C14.0937211,6.80470076 18.8345937,0.285854263 18.8345937,0.285854263 C18.8345937,0.285854263 21.5594406,0.330339803 20.4959035,2.13507661 C19.4323664,3.93981341 19.755492,4.25974871 17.3162958,6.56627182 C12.7143647,10.9178941 9.37140297,15.9702595 5.16569492,18.7916806 C0.959986875,21.6131017 3.50438516,16.9424582 3.50438516,16.9424582 C3.50438516,16.9424582 7.32845923,12.9098741 10.4818905,10.064124 L10.4818905,10.064124 Z" id="Shoe-string" fill="#000000"></path>
                            </g>
                            <g id="Shoelace-group-Copy" transform="translate(139.833339, 30.011930) rotate(-10.000000) translate(-139.833339, -30.011930) translate(130.833339, 20.511930)">
                                <ellipse id="slace-hole" fill="#994325" cx="3.31038464" cy="14.9302447" rx="3.31038464" ry="3.31783215"></ellipse>
                                <path d="M10.4818905,5.91683382 C14.0937211,2.65741058 15.5242091,0.285854263 15.5242091,0.285854263 C15.5242091,0.285854263 18.2490559,1.15979784 17.1855189,2.96453464 C16.1219818,4.76927145 15.6175112,5.08920675 13.178315,7.39572986 C8.57638393,11.7473521 9.37140297,11.8229693 5.16569492,14.6443904 C0.959986875,17.4658115 3.50438516,12.7951681 3.50438516,12.7951681 C3.50438516,12.7951681 7.32845923,8.76258393 10.4818905,5.91683382 L10.4818905,5.91683382 Z" id="Shoe-string" fill="#000000"></path>
                            </g>
                        </g>
                        <g id="Left-shoe" transform="translate(0.000000, 541.388397)">
                            <path d="M0.538177007,93.0165266 L1.89621168,117.538628 L9.35129631,125.550446 L113.729575,124.875208 L172.348813,100.155021 L173.295772,55.753226 C173.295772,55.753226 161.114089,38.0138954 128.287935,29.6444227 C106.925144,24.1976896 78.7678255,13.8273182 68.7399845,23.0859174 C54.617174,51.5635309 37.0965808,77.3494767 37.0965808,77.3494767 L0.538177007,93.0165266 Z" id="Path-64" fill="#3C2415"></path>
                            <polygon id="Path-64-Copy" fill="#1E0F07" points="21.248312 116.750118 1.89621168 115.165269 9.35129631 125.550446 113.729575 124.875208 172.348813 100.155021 173.295772 87.85711 114.019939 116.114343"></polygon>
                            <path d="M41.5653756,68.9679749 C41.5653756,68.9679749 78.1721659,61.4682766 107.382478,79.9349098 C137.419165,57.5641285 133.920466,54.7971431 142.57601,40.0123836 C142.57601,40.0123836 95.8644436,20.6394697 62.5932007,33.1655225 C51.6836666,46.4578579 41.5653756,68.9679749 41.5653756,68.9679749 Z" id="Path-65" fill="#663019"></path>
                            <g id="Shoelace-group" transform="translate(94.959896, 42.959304) rotate(-128.000000) translate(-94.959896, -42.959304) translate(66.959896, 10.459304)">
                                <ellipse id="slace-hole" fill="#994325" cx="3.73298694" cy="60.2414395" rx="3.73298694" ry="4.00213503"></ellipse>
                                <path d="M32.8666844,26.2499917 C36.9395998,22.3183124 52.9447068,0.394716153 52.9447068,0.394716153 C52.9447068,0.394716153 56.2723619,2.66932238 55.0730541,4.84628615 C54.5774896,5.74582679 47.8571732,12.4978331 40.2318409,22.8925049 C29.4032298,37.6538103 15.9074815,57.0160938 14.1747393,58.4625063 C11.7231389,60.9157665 13.4913478,60.635053 7.3952966,62.073058 C2.91160829,62.0730558 1.53552728,60.9461265 2.58563574,59.5362358 C3.63574419,58.1263451 7.25403702,60.9210685 10.810034,57.4883825 L32.8666844,26.2499917 Z" id="Shoe-string" fill="#000000"></path>
                            </g>
                            <g id="Shoelace-group-Copy-2" transform="translate(89.853831, 51.727954) rotate(-128.000000) translate(-89.853831, -51.727954) translate(62.853831, 20.227954)">
                                <ellipse id="slace-hole" fill="#994325" cx="3.73298694" cy="58.0033495" rx="3.73298694" ry="4.00213503"></ellipse>
                                <path d="M32.8666844,24.0119017 C36.9395998,20.0802224 51.578589,0.026858711 51.578589,0.026858711 C51.578589,0.026858711 54.9062442,2.30146494 53.7069364,4.47842871 C53.2113718,5.37796935 47.8571732,10.2597431 40.2318409,20.6544149 C29.4032298,35.4157203 15.9074815,54.7780038 14.1747393,56.2244164 C11.7231389,58.6776766 13.4913478,58.396963 7.3952966,59.834968 C2.91160829,59.8349658 1.53552728,58.7080366 2.58563574,57.2981459 C3.63574419,55.8882552 7.25403702,58.6829786 10.810034,55.2502925 L32.8666844,24.0119017 Z" id="Shoe-string" fill="#000000"></path>
                            </g>
                            <g id="Shoelace-group-Copy-3" transform="translate(83.047028, 59.867014) rotate(-128.000000) translate(-83.047028, -59.867014) translate(57.047028, 29.867014)">
                                <ellipse id="slace-hole" fill="#994325" cx="3.73298694" cy="55.4947212" rx="3.73298694" ry="4.00213503"></ellipse>
                                <path d="M32.8666844,21.5032734 C36.9395998,17.5715941 49.3017261,0.635284606 49.3017261,0.635284606 C49.3017261,0.635284606 52.6293812,2.90989084 51.4300735,5.08685461 C50.9345089,5.98639525 47.8571732,7.75111483 40.2318409,18.1457866 C29.4032298,32.907092 15.9074815,52.2693755 14.1747393,53.715788 C11.7231389,56.1690483 13.4913478,55.8883347 7.3952966,57.3263397 C2.91160829,57.3263375 1.53552728,56.1994082 2.58563574,54.7895175 C3.63574419,53.3796268 7.25403702,56.1743502 10.810034,52.7416642 L32.8666844,21.5032734 Z" id="Shoe-string" fill="#000000"></path>
                            </g>
                            <g id="Shoelace-group-Copy-4" transform="translate(76.743511, 66.075879) rotate(-128.000000) translate(-76.743511, -66.075879) translate(52.243511, 38.575879)">
                                <ellipse id="slace-hole" fill="#994325" cx="3.73298694" cy="50.7480029" rx="3.73298694" ry="4.00213503"></ellipse>
                                <path d="M32.8666844,16.7565551 C36.9395998,12.8248758 46.1141181,0.252442216 46.1141181,0.252442216 C46.1141181,0.252442216 49.4417732,2.52704845 48.2424654,4.70401222 C47.7469009,5.60355286 47.8571732,3.00439654 40.2318409,13.3990683 C29.4032298,28.1603737 15.9074815,47.5226572 14.1747393,48.9690698 C11.7231389,51.42233 13.4913478,51.1416164 7.3952966,52.5796214 C2.91160829,52.5796192 1.53552728,51.45269 2.58563574,50.0427993 C3.63574419,48.6329086 7.25403702,51.427632 10.810034,47.9949459 L32.8666844,16.7565551 Z" id="Shoe-string" fill="#000000"></path>
                            </g>
                        </g>
                        <path d="M70.8387097,21.6430678 L173.817204,21.6430678 L167.258065,567.310718 C167.258065,567.310718 140.437592,573.869223 127.027355,573.869223 C106.111427,573.869223 64.2795699,567.310718 64.2795699,567.310718 L70.8387097,21.6430678 Z" id="leg-left" fill="#044981"></path>
                        <polygon id="leg-right" fill="#044981" points="174.473118 21.6430678 277.451613 21.6430678 284.010753 567.310718 181.032258 580.427729"></polygon>
                    </g>
                    <rect id="neck" fill="#814414" x="183" y="163" width="69.8739393" height="133.173557" rx="34.9369696"></rect>
                    <g id="head-wide" transform="translate(133.000000, 0.000000)">
                        <g id="Beard" transform="translate(15.668874, 0.000000)">
                            <mask id="mask-9" fill="white">
                                <use xlink:href="#path-8"></use>
                            </mask>
                            <use id="Mask" fill="#814414" xlink:href="#path-8"></use>
                            <g mask="url(#mask-9)">
                                <use fill="url(#linearGradient-10)" xlink:href="#path-11"></use>
                                <use fill="#492813" style="mix-blend-mode: multiply;" xlink:href="#path-11"></use>
                            </g>
                        </g>
                        <ellipse id="beard-hole" fill="#814414" cx="84.5" cy="190.14218" rx="35.2549669" ry="26.8436019"></ellipse>
                        <ellipse id="right-ear" fill="#814414" cx="24.0860832" cy="111.38616" rx="24.0860832" ry="19.6705199"></ellipse>
                        <ellipse id="left-ear" fill="#814414" cx="143.84105" cy="111.38616" rx="24.0860832" ry="19.6705199"></ellipse>
                        <g id="mouth">
                            <use fill="#000000" fill-rule="evenodd" xlink:href="#path-12"></use>
                            <ellipse stroke="#5A2F10" stroke-width="5" cx="73.8675497" cy="189.582938" rx="10.9304636" ry="8.12559242"></ellipse>
                        </g>
                        <g id="Group" transform="translate(35.814570, 77.175355)">
                            <path d="M69.7189867,57.7072603 C69.7189867,57.7072603 70.1367448,63.909813 63.2966931,65.7058668 C56.4566413,67.5019206 44.078188,67.8422978 36.0520137,65.7058668 C28.0258394,63.5694358 29.2408439,57.7072603 29.2408439,57.7072603" id="Line" stroke="#321B0D" stroke-width="6" opacity="0.5" stroke-linecap="round"></path>
                            <path d="M27.3514773,0.618677694 C27.3514773,0.618677694 25.4708472,4.07023851 21.6645346,5.0696962 C17.858222,6.06915388 10.9699315,6.25856501 6.5035722,5.0696962 C2.03721292,3.88082739 0.6002299,0.618677694 0.6002299,0.618677694" id="Line-Copy" stroke="#321B0D" stroke-width="6" opacity="0.5" stroke-linecap="round" transform="translate(13.975854, 3.255264) scale(1, -1) translate(-13.975854, -3.255264) "></path>
                            <path d="M95.1560093,1.07469589e-13 C95.1560093,1.07469589e-13 93.2753792,3.45156081 89.4690666,4.4510185 C85.662754,5.45047619 78.7744635,5.63988731 74.3081042,4.4510185 C69.8417449,3.26214969 68.4047619,1.07469589e-13 68.4047619,1.07469589e-13" id="Line-Copy-2" stroke="#321B0D" stroke-width="6" opacity="0.5" stroke-linecap="round" transform="translate(81.780386, 2.636586) scale(1, -1) translate(-81.780386, -2.636586) "></path>
                            <ellipse id="Oval-1" fill="#311B0C" cx="12.657679" cy="26.5329121" rx="6.32883948" ry="8.84430402"></ellipse>
                            <ellipse id="Oval-1-Copy" fill="#311B0C" cx="82.3282088" cy="26.5329121" rx="6.32883948" ry="8.84430402"></ellipse>
                        </g>
                    </g>
                    <g id="drink" transform="translate(161.712416, 279.388128) rotate(11.000000) translate(-161.712416, -279.388128) translate(123.212416, 184.388128)" stroke-linecap="round" stroke-linejoin="round">
                        <g id="cup">
                            <use fill="#D2D2D2" fill-rule="evenodd" xlink:href="#path-13"></use>
                            <path stroke="#D2D2D2" stroke-width="5" d="M-2.62812305,66.8367784 L79.6500832,66.8367784 L72.3584165,191.836778 L3.62187695,191.836778 L-2.62812305,66.8367784 Z"></path>
                        </g>
                        <polyline id="straw" stroke="#BF0A0A" stroke-width="8" points="63.1838201 0.367456331 39 53 31 166"></polyline>
                        <g id="water">
                            <use fill="#72C1F6" fill-rule="evenodd" xlink:href="#path-14"></use>
                            <path stroke="#72C1F6" stroke-width="5" d="M6.91378645,122.533393 L72.2065549,101.85735 L67.3812344,184.836778 L9.79968697,184.836778 L6.91378645,122.533393 Z"></path>
                        </g>
                    </g>
                    <path d="M63.4854526,441.755937 C63.4854526,411.225691 56.0692189,354.173469 56.0692189,354.173469 C53.5376747,332.667794 69.0499417,315.234 90.7116646,315.234 L82.1331798,315.234 C103.797219,315.234 123.501291,332.66162 126.020376,354.177816 C126.020376,354.177816 133.359392,409.620038 133.359392,439.347458 C133.359392,464.495516 134.114308,468.398813 134.114308,468.398813 C135.288194,490.02125 118.675327,507.549698 97.0136045,507.549698 L105.592089,507.549698 C83.9280505,507.549698 65.272805,490.03055 64.1781346,468.383043 C64.1781346,468.383043 63.4854526,466.101169 63.4854526,441.755937 Z" id="arm-copy" fill="#814414" transform="translate(94.985731, 411.391849) rotate(44.000000) translate(-94.985731, -411.391849) "></path>
                    <path d="M316.531826,455.954483 C310.158631,432.794552 364.343487,411.679223 377.501139,441.046303 C390.658791,470.413383 382.508043,660.549451 382.508043,660.549451 C381.831223,679.588409 365.833054,695.022534 346.780065,695.022534 L357.056231,695.022534 C338.001034,695.022534 322.336462,679.58072 322.043348,660.521279 C322.043348,660.521279 320.313238,521.830678 316.531826,455.954483 Z" id="arm-copy-2" fill="#814414" transform="translate(350.508382, 560.854443) rotate(13.000000) translate(-350.508382, -560.854443) "></path>
                </g>
            </g>
        </g>
    </g>
</svg>